# xmcd
#
# Track frame offsets:
#	150
#	16993
#	39052
#	56117
#	75654
#	89259
#	106172
#	119092
#	134359
#	152256
#	168174
#	186155
#	202938
#
# Disc length: 2910 seconds
# Revision: 0
# Processed by: cddbd v1.5.2PL0 Copyright (c) Steve Scherf et al.
# Submitted via: dBpowerAMP V12.0
#
DISCID=990b5c0d
DTITLE=Emily Barker and The Red Clay Halo - Almanac
DYEAR=2008
DGENRE=Country-Folk
TTITLE0=Billowing Sea
TTITLE1=Reckless
TTITLE2=Ropes
TTITLE3=Little Deaths
TTITLE4=Dancers
TTITLE5=Pause
TTITLE6=Openings
TTITLE7=Calendar
TTITLE8=Light
TTITLE9=Witch of Pittenweem
TTITLE10=Bones
TTITLE11=Ropes (alternate version)
TTITLE12=Pause (alternate version)
EXTD=
EXTT0=
EXTT1=
EXTT2=
EXTT3=
EXTT4=
EXTT5=
EXTT6=
EXTT7=
EXTT8=
EXTT9=
EXTT10=
EXTT11=
EXTT12=
PLAYORDER=
